<svg width="56" height="34" viewBox="0 0 56 34" fill="none" xmlns="http://www.w3.org/2000/svg">
<rect width="56" height="34" rx="3" fill="#FFD02A"/>
<path d="M4.58879 26.2143V9.03429H11.4688V12.3743H8.04879V15.1143H11.2888V18.4143H8.04879V26.2143H4.58879ZM12.4171 26.2143V9.03429H15.7371V26.2143H12.4171ZM17.1083 26.2143V9.03429H22.3483L23.7883 19.5143L25.2283 9.03429H30.5083V26.2143H27.3683V13.8343L25.3883 26.2143H22.3083L20.2083 13.8343V26.2143H17.1083ZM32.0302 9.03429H36.7702C37.9969 9.03429 38.9169 9.37429 39.5302 10.0543C40.1435 10.7343 40.4569 11.741 40.4702 13.0743L40.5102 21.1143C40.5235 22.8076 40.2302 24.081 39.6302 24.9343C39.0302 25.7876 38.0369 26.2143 36.6502 26.2143H32.0302V9.03429ZM36.0902 23.1743C36.7169 23.1743 37.0302 22.8676 37.0302 22.2543V13.3943C37.0302 13.0076 36.9969 12.721 36.9302 12.5343C36.8769 12.3343 36.7702 12.201 36.6102 12.1343C36.4502 12.0676 36.2035 12.0343 35.8702 12.0343H35.4902V23.1743H36.0902ZM47.4935 26.3743C46.5335 26.3743 45.8468 25.801 45.4335 24.6543V26.2143H41.8335V8.93429H45.4335V12.2743C45.9935 11.701 46.6468 11.4143 47.3935 11.4143C48.5268 11.4143 49.3401 11.7543 49.8335 12.4343C50.3268 13.101 50.5735 14.0676 50.5735 15.3343V22.3943C50.5735 23.5943 50.3201 24.561 49.8135 25.2943C49.3068 26.0143 48.5335 26.3743 47.4935 26.3743ZM46.3135 23.6543C46.5535 23.6543 46.7201 23.581 46.8135 23.4343C46.9201 23.2743 46.9801 23.081 46.9935 22.8543C47.0201 22.6143 47.0335 22.2476 47.0335 21.7543V15.6543C47.0335 15.1343 46.9868 14.7476 46.8935 14.4943C46.8001 14.241 46.6001 14.1143 46.2935 14.1143C45.9601 14.1143 45.7335 14.241 45.6135 14.4943C45.4935 14.7476 45.4335 15.121 45.4335 15.6143V21.7543C45.4335 22.3943 45.4868 22.8743 45.5935 23.1943C45.7001 23.501 45.9401 23.6543 46.3135 23.6543Z" fill="black"/>
</svg>
